<svg width="29" height="22" viewBox="0 0 29 22" fill="none" xmlns="http://www.w3.org/2000/svg">
<path fill-rule="evenodd" clip-rule="evenodd" d="M20.3436 18.5568C20.8871 13.1361 20.8871 7.67155 20.3436 2.25089C20.1498 0.317915 18.0021 -0.661237 16.4991 0.498158L11.4868 4.36451C9.95942 5.54266 8.10696 6.17887 6.20387 6.17887H1.52678C0.683565 6.17887 0 6.88821 0 7.76322V13.0444C0 13.9194 0.683563 14.6288 1.52678 14.6288H2.2893L1.25675 18.6276C1.14169 19.0732 1.35155 19.5402 1.75445 19.7352L6.25071 21.9109C6.49612 22.0297 6.77959 22.0297 7.02501 21.9109C7.27042 21.7922 7.45263 21.5668 7.52272 21.2954L9.06501 15.3225C9.08139 15.259 9.09118 15.1954 9.09482 15.1323C9.94674 15.4376 10.7541 15.878 11.4868 16.4431L16.499 20.3095C18.0021 21.4689 20.1498 20.4897 20.3436 18.5568ZM18.5213 2.44765C19.0517 7.73749 19.0517 13.0702 18.5213 18.36C18.4745 18.8272 17.9553 19.0639 17.5921 18.7836L12.5798 14.9173C10.7364 13.4954 8.5007 12.7275 6.20387 12.7275L1.83214 12.7275L1.83214 8.0801H6.20387C8.5007 8.0801 10.7364 7.31226 12.5798 5.89036L17.5921 2.024C17.9553 1.74378 18.4745 1.98044 18.5213 2.44765ZM7.33706 14.7043C6.96282 14.6542 6.58435 14.6288 6.20387 14.6288H4.18607L3.22541 18.3492L6.03557 19.709L7.29529 14.8304C7.30655 14.7868 7.32056 14.7447 7.33706 14.7043Z" fill="#D65F5F"/>
<path d="M26.7505 2.21338C27.2309 2.04852 27.7491 2.31895 27.9079 2.81741C28.6169 5.04181 29.0002 7.41892 29.0002 9.88704C29.0002 12.3552 28.6169 14.7323 27.9079 16.9567C27.7491 17.4551 27.2309 17.7256 26.7505 17.5607C26.2702 17.3958 26.0096 16.8581 26.1685 16.3597C26.8168 14.3254 27.1681 12.1498 27.1681 9.88704C27.1681 7.62432 26.8168 5.44863 26.1685 3.41441C26.0096 2.91596 26.2702 2.37824 26.7505 2.21338Z" fill="#D65F5F"/>
<path d="M24.4593 4.75079C24.2848 4.25799 23.7584 4.00528 23.2835 4.18635C22.8086 4.36741 22.5651 4.91369 22.7396 5.40648C23.2336 6.8019 23.5038 8.31066 23.5038 9.88704C23.5038 11.1946 23.3179 12.4554 22.9727 13.6434C22.9535 13.7096 22.9338 13.7756 22.9136 13.8413C22.8591 14.0184 22.8011 14.1939 22.7396 14.3676C22.5651 14.8604 22.8086 15.4067 23.2835 15.5877C23.7584 15.7688 24.2848 15.5161 24.4593 15.0233C24.5299 14.8239 24.5965 14.6226 24.659 14.4194C24.6822 14.3439 24.7048 14.2682 24.7269 14.1922C25.1232 12.8281 25.3359 11.3825 25.3359 9.88704C25.3359 8.08366 25.0266 6.35311 24.4593 4.75079Z" fill="#D65F5F"/>
</svg>
