<svg width="51" height="38" viewBox="0 0 51 38" fill="none" xmlns="http://www.w3.org/2000/svg">
<mask id="mask0_781_13357" style="mask-type:alpha" maskUnits="userSpaceOnUse" x="0" y="9" width="51" height="29">
<path d="M30.9416 37.4695C32.1855 37.4695 33.5846 37.3278 34.8285 37.185C38.4037 36.4714 41.9802 34.9013 44.7795 32.477C46.6452 30.9079 48.2007 29.1962 49.2882 27.199C50.3769 25.2018 51 22.9201 51 20.7792C51 18.7841 50.6873 16.7858 49.9101 14.9313C49.133 13.0779 48.0443 11.5078 46.8004 9.93883C46.6452 9.79717 46.4889 9.5117 46.1785 9.36897V10.2254C46.1785 21.9211 35.9172 31.3361 23.1668 31.3361C10.2614 31.1923 0 20.7792 0 9.0835C0 24.7736 13.8378 37.4695 30.9416 37.4695Z" fill="white"/>
</mask>
<g mask="url(#mask0_781_13357)">
<path fill-rule="evenodd" clip-rule="evenodd" d="M-6.21936 43.1466H57.2182V3.40625H-6.21936V43.1466Z" fill="#003764"/>
</g>
<mask id="mask1_781_13357" style="mask-type:alpha" maskUnits="userSpaceOnUse" x="14" y="0" width="30" height="30">
<path d="M27.8025 0.579524C27.6497 0.579524 27.4969 0.724407 27.1889 0.724407C27.3428 0.724407 27.4969 0.869285 27.8025 0.869285C35.7736 4.05881 39.4512 12.7559 36.0794 20.2919C32.8204 27.5768 23.5501 30.9337 15.7377 28.2743C26.2659 31.9425 38.0357 27.2848 42.5174 17.3933C42.8255 16.6688 43.1299 15.7985 43.2851 15.0741C43.7436 12.7559 43.5908 10.2909 42.6714 7.97274C42.3646 6.0882 41.4452 4.78322 40.3729 3.62417C39.2995 2.46405 37.9193 1.44989 36.3862 0.869285C35.0072 0.289762 33.6269 0 32.0949 0C30.7147 0 29.1816 0.144881 27.8025 0.579524ZM15.7377 28.2743C15.4661 28.1799 15.1957 28.0801 14.9276 27.9749C15.1945 28.0822 15.4649 28.1821 15.7377 28.2743Z" fill="white"/>
</mask>
<g mask="url(#mask1_781_13357)">
<path fill-rule="evenodd" clip-rule="evenodd" d="M8.70715 35.1985H49.755V-5.67725H8.70715V35.1985Z" fill="#4B6D90"/>
</g>
<mask id="mask2_781_13357" style="mask-type:alpha" maskUnits="userSpaceOnUse" x="19" y="4" width="18" height="24">
<path d="M25.3748 4.63643C24.4096 4.78024 23.2833 5.06893 22.4768 5.64416C21.6726 6.07666 20.8684 6.65403 20.2242 7.37307C20.0631 7.51796 20.0631 7.51796 19.9032 7.66176C20.0631 7.66176 20.2242 7.66176 20.3852 7.51796C26.3412 6.50916 32.1362 10.1108 33.2637 15.583C34.3911 20.9136 29.8836 26.242 23.7653 27.2496C31.8152 25.9543 37.2892 19.0409 35.8396 11.6948C35.6785 11.1185 35.5175 10.5411 35.3576 10.1108C34.7121 8.66949 33.5846 7.22819 32.1362 6.22047C31.171 5.50036 30.0446 5.06893 28.9172 4.78024C28.2576 4.61175 27.5969 4.54199 26.9044 4.54199C26.4153 4.54199 25.9086 4.57741 25.3748 4.63643Z" fill="white"/>
</mask>
<g mask="url(#mask2_781_13357)">
<path fill-rule="evenodd" clip-rule="evenodd" d="M13.6826 32.9279H42.2917V-1.13525H13.6826V32.9279Z" fill="#003764"/>
</g>
</svg>
