<svg width="38" height="29" viewBox="0 0 38 29" fill="none" xmlns="http://www.w3.org/2000/svg">
<g clip-path="url(#clip0_781_9856)">
<path fill-rule="evenodd" clip-rule="evenodd" d="M36.7783 20.8845C37.574 19.3291 37.9931 17.6003 38 15.844C38.0018 14.27 37.711 12.71 37.1432 11.2474C36.5871 9.8188 35.7892 8.50203 34.7864 7.3577C34.6441 7.1992 34.4957 7.04069 34.3472 6.88536C34.3472 7.10093 34.3472 7.31649 34.3472 7.53522C34.3472 16.6492 26.6612 24.0387 17.1813 24.0387C7.70144 24.0387 0 15.9011 0 6.77441C0 19.049 10.3521 29.0031 23.1229 29.0031C24.0931 29.0015 25.0615 28.9166 26.0179 28.7495C28.7641 28.2053 31.3278 26.9467 33.4626 25.0944C34.8259 23.9269 35.9524 22.4966 36.7783 20.8845Z" fill="#003764"/>
<path fill-rule="evenodd" clip-rule="evenodd" d="M30.1934 2.8053C29.3532 1.88873 28.3255 1.17422 27.184 0.713048C26.1421 0.29006 25.0376 0.0520592 23.9178 0.00927734H23.5095C22.567 0.0130524 21.6298 0.153944 20.7259 0.427732C20.5805 0.468943 20.4382 0.516495 20.296 0.567217C20.4413 0.617938 20.5836 0.675006 20.729 0.732068C26.754 3.16987 29.5872 9.83974 27.0541 15.6315C24.5209 21.4233 17.0731 23.9498 11.048 21.5183C19.1639 24.7962 28.5108 21.1284 31.9224 13.3268C32.1838 12.7361 32.3909 12.1216 32.5409 11.4914C32.915 9.6457 32.768 7.72897 32.1172 5.96587C31.6876 4.79157 31.0336 3.71704 30.1934 2.8053Z" fill="#00A3B6"/>
<path fill-rule="evenodd" clip-rule="evenodd" d="M21.3692 3.91517C20.5523 3.69132 19.698 3.64916 18.8639 3.79153C18.1212 3.92055 17.405 4.17668 16.7452 4.54919C16.1206 4.90424 15.5598 5.36636 15.0874 5.9155C15.0225 5.98841 14.9606 6.06765 14.8987 6.14691C15.0008 6.12472 15.1029 6.10252 15.208 6.08667C19.5536 5.33536 23.7075 8.10919 24.4869 12.2874C25.2663 16.4656 22.0125 20.5296 17.6824 21.2778C23.5343 20.2665 27.4252 14.8837 26.3705 9.25994C26.2897 8.83188 26.1696 8.41262 26.0117 8.00775C25.5068 6.81404 24.6942 5.78387 23.6611 5.02787C22.9713 4.51402 22.1941 4.13665 21.3692 3.91517Z" fill="#4CB05C"/>
</g>
<defs>
<clipPath id="clip0_781_9856">
<rect width="38" height="29" fill="white"/>
</clipPath>
</defs>
</svg>
