<svg width="296" height="48" viewBox="0 0 296 48" fill="none" xmlns="http://www.w3.org/2000/svg">
<g clip-path="url(#clip0_781_13306)">
<path fill-rule="evenodd" clip-rule="evenodd" d="M72.87 32.6099L73.39 39.6099H79.49L76.32 12.6099H68.9L55.75 39.6099H61.93L65.09 32.6099H72.87ZM66.78 28.1998L69.46 22.3899C70.19 20.8299 70.95 18.7399 71.63 17.0999H71.71C71.83 18.7399 71.99 20.9099 72.07 22.3899L72.63 28.1998H66.78ZM73.59 6.10986L69.82 11.1099H74.72L80.01 6.10986H73.59ZM79.69 46.7699C81.7027 47.6713 83.8964 48.0956 86.1 48.0099C88.8023 48.1384 91.4702 47.3605 93.68 45.7998C96.01 43.9198 97.13 40.7099 97.81 37.0999L100.81 20.9498C98.5025 20.024 96.0362 19.5586 93.55 19.5798C85.01 19.5798 80.36 25.9998 80.4 32.4498C80.4 36.2998 82.81 39.4498 86.7 39.4498C87.8054 39.4687 88.8979 39.2105 89.8778 38.6987C90.8578 38.1869 91.6939 37.4379 92.31 36.5199H92.39L92.07 38.2098C91.23 42.1398 89.07 43.4199 86.21 43.4199C84.4423 43.4324 82.6926 43.064 81.08 42.3398L79.72 46.7499L79.69 46.7699ZM93.52 29.6099C92.88 32.8899 90.99 35.0199 89.11 35.0199C87.23 35.0199 86.46 33.5798 86.46 31.5698C86.46 27.8798 88.95 23.9899 92.46 23.9899C93.1697 23.9798 93.875 24.1019 94.54 24.3499L93.54 29.6099H93.52ZM115.65 20.0199L113.93 29.1299C113.17 33.0099 111.16 35.3799 109.2 35.3799C107.75 35.3799 107.2 34.3799 107.2 33.1299C107.224 32.2572 107.318 31.3878 107.48 30.5299L109.48 20.0199H103.7L101.62 30.9698C101.365 32.1566 101.231 33.3661 101.22 34.5798C101.22 38.3098 103.1 40.0698 106.22 40.0698C107.573 40.0519 108.901 39.7103 110.095 39.0735C111.288 38.4367 112.312 37.5234 113.08 36.4099H113.16L112.8 39.5798H117.89C118.13 37.8098 118.45 35.6898 118.89 33.2098L121.37 19.9698L115.65 20.0199ZM138.3 39.6099H133.01C133.01 38.4499 133.17 37.1198 133.25 35.7198H133.17C131.37 38.9698 128.84 40.0498 126.56 40.0498C123.03 40.0498 120.62 37.3199 120.62 33.2399C120.62 26.6199 125.04 19.5598 134.62 19.5598C136.82 19.5777 139.006 19.9145 141.11 20.5598L139.11 30.8198C138.567 33.7283 138.295 36.6811 138.3 39.6399V39.6099ZM133.78 28.6099L134.66 24.0798C134.143 23.9787 133.617 23.9252 133.09 23.9199C129.36 23.9199 126.64 28.4899 126.64 32.1399C126.64 34.0699 127.4 35.3899 129 35.3899C130.6 35.3899 132.85 33.3899 133.78 28.6099ZM139.67 38.4799C141.493 39.5253 143.569 40.0511 145.67 39.9999C150.89 39.9999 154.67 37.5999 154.67 33.0999C154.67 30.3799 152.43 28.8099 150.26 27.7299C148.7 26.9699 147.9 26.2899 147.9 25.4899C147.9 24.3999 148.9 23.7599 150.46 23.7599C151.801 23.7672 153.126 24.0532 154.35 24.5999L155.76 20.5199C154.174 19.7981 152.441 19.4558 150.7 19.5199C145.7 19.5199 142.08 22.2098 142.08 26.2998C142.08 28.7398 143.97 30.3899 146.21 31.5099C148.02 32.3899 148.66 33.0699 148.66 34.0399C148.66 35.0099 147.82 35.7998 146.17 35.7998C144.396 35.7102 142.662 35.2468 141.08 34.4398L139.68 38.4899L139.67 38.4799ZM177.67 11.1299L175.94 19.9899C175.077 19.6785 174.167 19.5162 173.25 19.5099C165.84 19.5099 160.91 25.8099 160.91 32.6199C160.91 37.3999 163.63 40.0399 166.96 40.0399C168.256 40.0433 169.531 39.7128 170.663 39.0806C171.794 38.4483 172.744 37.5354 173.42 36.4298H173.5L173.21 39.5999H178.51C178.629 37.0407 178.936 34.4937 179.43 31.9799L183.43 11.1299H177.67ZM174.08 29.8799C173.32 33.6499 171.27 35.4099 169.59 35.4099C167.91 35.4099 166.9 34.0898 166.9 31.7198C166.9 27.9498 169.35 23.9398 172.84 23.9398C173.653 23.9144 174.453 24.153 175.12 24.6199L174.12 29.8799H174.08ZM193.2 19.5299C198.45 19.5299 201.5 23.1399 201.5 27.6299C201.5 34.8099 196.57 40.0598 189.79 40.0598C184.79 40.0598 181.49 36.8099 181.49 31.9199C181.49 25.1499 186.23 19.5299 193.2 19.5299ZM192.44 23.9398C189.11 23.9398 187.44 28.7898 187.44 31.8398C187.44 34.1298 188.56 35.6499 190.61 35.6499C193.69 35.6499 195.5 30.9999 195.5 27.6499C195.5 25.8499 194.7 23.9199 192.41 23.9199L192.44 23.9398ZM206.87 39.3398C209.124 39.7062 211.407 39.8668 213.69 39.8198C218.18 39.8198 221.59 39.1799 223.87 37.6199C224.988 36.9605 225.916 36.0223 226.563 34.897C227.209 33.7717 227.553 32.4978 227.56 31.1998C227.623 29.882 227.236 28.5821 226.464 27.5122C225.692 26.4424 224.58 25.6659 223.31 25.3098V25.1898C226.31 24.3398 228.76 22.1899 228.76 18.7699C228.764 17.7271 228.474 16.7043 227.922 15.8196C227.37 14.9349 226.579 14.2244 225.64 13.7699C223.575 12.7046 221.259 12.2207 218.94 12.3699C216.558 12.3514 214.18 12.5658 211.84 13.0099L206.84 39.3098L206.87 39.3398ZM216.87 17.0498C217.624 16.9352 218.387 16.8817 219.15 16.8899C221.36 16.8899 222.92 17.7299 222.92 19.6499C222.92 21.9799 220.75 23.3398 217.59 23.3398H215.64L216.85 17.0498H216.87ZM214.78 27.5498H216.59C219.27 27.5498 221.52 28.3499 221.52 31.0399C221.52 34.0399 218.67 35.2899 215.52 35.2899C214.786 35.3062 214.051 35.2795 213.32 35.2098L214.76 27.5498H214.78ZM233.78 39.6199H227.95L230.16 27.9498C230.72 24.9498 230.96 21.6999 231.16 20.0099H236.16C236.04 21.3399 235.96 22.6599 235.8 24.0099H235.92C237.32 21.4099 239.49 19.5598 242.17 19.5598C242.533 19.5399 242.897 19.5399 243.26 19.5598L242.13 25.1798C241.824 25.159 241.516 25.159 241.21 25.1798C237.52 25.1798 235.8 28.4598 235.08 32.3098L233.72 39.6099L233.78 39.6199ZM258.63 39.6199C258.622 36.6614 258.89 33.7085 259.43 30.7998L261.43 20.5399C259.323 19.8939 257.134 19.5571 254.93 19.5399C245.31 19.5399 240.93 26.5998 240.93 33.2198C240.93 37.2998 243.34 40.0299 246.87 40.0299C249.15 40.0299 251.68 38.9498 253.48 35.6998H253.56C253.48 37.0998 253.36 38.4298 253.32 39.5898L258.63 39.6199ZM254.08 28.6099C253.16 33.4199 251.08 35.3899 249.31 35.3899C247.54 35.3899 246.95 34.0699 246.95 32.1399C246.95 28.4899 249.67 23.9199 253.4 23.9199C253.924 23.9252 254.446 23.9787 254.96 24.0798L254.08 28.6099ZM259.98 38.4799L261.38 34.4298C262.962 35.2368 264.696 35.7003 266.47 35.7899C268.11 35.7899 268.96 34.9899 268.96 34.0299C268.96 33.0699 268.31 32.3799 266.51 31.4999C264.27 30.3799 262.38 28.7299 262.38 26.2899C262.38 22.1999 265.95 19.5099 271 19.5099C272.722 19.4522 274.433 19.7945 276 20.5099L274.6 24.5898C273.376 24.0432 272.051 23.7571 270.71 23.7499C269.15 23.7499 268.15 24.3899 268.15 25.4799C268.15 26.2799 268.95 26.9598 270.51 27.7198C272.68 28.7998 274.92 30.3698 274.92 33.0898C274.92 37.5898 271.11 40.0299 265.92 39.9899C263.819 40.0421 261.743 39.5163 259.92 38.4698L259.98 38.4799ZM281.08 39.6099L284.81 19.9999H279.08L275.3 39.6099H281.08ZM282.69 17.6099C283.132 17.639 283.575 17.5761 283.991 17.4252C284.407 17.2743 284.788 17.0387 285.108 16.7333C285.429 16.4278 285.682 16.0592 285.853 15.6506C286.024 15.2421 286.108 14.8026 286.1 14.3599C286.115 13.9747 286.049 13.5908 285.906 13.2329C285.762 12.875 285.546 12.5513 285.269 12.2826C284.993 12.0139 284.664 11.8062 284.302 11.6731C283.94 11.54 283.555 11.4844 283.17 11.5099C282.734 11.5019 282.301 11.5812 281.896 11.7432C281.491 11.9052 281.122 12.1465 280.812 12.4531C280.501 12.7597 280.256 13.1253 280.089 13.5283C279.922 13.9313 279.837 14.3636 279.84 14.7998C279.82 15.1706 279.878 15.5415 280.01 15.8887C280.141 16.2359 280.344 16.5518 280.605 16.8163C280.865 17.0807 281.178 17.2879 281.524 17.4246C281.869 17.5612 282.239 17.6243 282.61 17.6099H282.69ZM289.69 39.6099H283.92L289.37 11.1399H295.15L289.69 39.6099Z" fill="white"/>
<path fill-rule="evenodd" clip-rule="evenodd" d="M49.57 34.29C50.6465 32.0881 51.2105 29.671 51.22 27.22C51.2243 25.021 50.8313 22.8393 50.06 20.78C49.32 18.7925 48.2406 16.9484 46.87 15.33L46.28 14.66C46.28 14.96 46.28 15.2699 46.28 15.5699C46.2813 18.6083 45.684 21.6171 44.5222 24.4246C43.3604 27.232 41.6569 29.783 39.5089 31.9319C37.361 34.0808 34.8107 35.7853 32.0038 36.9484C29.1968 38.1114 26.1883 38.71 23.15 38.71C10.37 38.71 -0.0100098 27.28 -0.0100098 14.5C-0.00735914 22.766 3.27746 30.6927 9.12239 36.5376C14.9673 42.3825 22.894 45.6674 31.16 45.67C32.4681 45.6652 33.7731 45.5447 35.06 45.3099C38.7876 44.524 42.239 42.7603 45.06 40.2C46.9293 38.5383 48.4606 36.5317 49.57 34.29Z" fill="white"/>
<path fill-rule="evenodd" clip-rule="evenodd" d="M40.69 8.94011C39.5931 7.67611 38.2261 6.67484 36.69 6.01018C35.2935 5.42113 33.804 5.08263 32.29 5.01018C30.8281 4.95345 29.3672 5.14615 27.97 5.58012L27.39 5.7802L27.97 6.01018C31.8635 7.65865 34.9462 10.7812 36.5445 14.6955C38.1428 18.6098 38.1268 22.9976 36.5 26.9002C33.08 35.0202 23.05 38.5702 14.92 35.1502C17.5215 36.2441 20.313 36.8149 23.1351 36.83C25.9572 36.8451 28.7546 36.3042 31.3677 35.2382C33.9807 34.1722 36.3582 32.602 38.3644 30.6171C40.3706 28.6323 41.9662 26.2717 43.0601 23.6702C43.4082 22.8392 43.6826 21.9792 43.8801 21.1001C44.3804 18.512 44.1836 15.8373 43.3101 13.3501C42.7246 11.7272 41.8354 10.2305 40.69 8.94011Z" fill="white"/>
<path fill-rule="evenodd" clip-rule="evenodd" d="M28.8 10.5C27.7046 10.1853 26.5514 10.127 25.43 10.3299C24.4206 10.5082 23.4517 10.8673 22.57 11.39C21.7215 11.8925 20.9669 12.5387 20.34 13.2999L20.08 13.63L20.5 13.54C23.3098 13.0362 26.2046 13.6684 28.5485 15.2978C30.8924 16.9273 32.4935 19.4206 33 22.23C34.06 28.09 29.68 33.79 23.82 34.84C27.6072 34.1582 30.9685 32 33.1645 28.8401C35.3605 25.6801 36.2114 21.7772 35.53 17.99C35.4206 17.3907 35.26 16.8018 35.05 16.23C34.3826 14.583 33.2884 13.1436 31.88 12.0599C30.9636 11.346 29.9177 10.8163 28.8 10.5Z" fill="white"/>
<path fill-rule="evenodd" clip-rule="evenodd" d="M96.6301 1.97001C97.4572 1.94754 98.2794 2.10443 99.0401 2.42997L99.3901 2.59L100.14 0.740029L99.8601 0.579995C98.902 0.153007 97.8579 -0.0455025 96.8101 3.87137e-05C94.9107 -0.0246036 93.0619 0.611631 91.5801 1.79997C90.7931 2.49017 90.1629 3.34081 89.7318 4.29459C89.3006 5.24838 89.0784 6.28327 89.0801 7.32999C89.0428 8.66377 89.5148 9.9617 90.4001 10.96C90.9576 11.4997 91.6221 11.9165 92.3507 12.1835C93.0793 12.4505 93.8558 12.5618 94.6301 12.51C95.8448 12.5043 97.0493 12.2877 98.1901 11.87L98.3801 11.8L99.6001 5.63004H94.9301L94.5401 7.53007H97.0201L96.4601 10.33C95.9621 10.4878 95.4423 10.5654 94.9201 10.56C92.5901 10.56 91.4101 9.44002 91.4101 7.23002C91.4124 6.49101 91.5643 5.76015 91.8564 5.08134C92.1486 4.40252 92.575 3.78982 93.1101 3.28007C94.0766 2.41586 95.3336 1.948 96.6301 1.97001Z" fill="#FDFEFF"/>
<path fill-rule="evenodd" clip-rule="evenodd" d="M107.41 3.18007C106.999 3.18922 106.594 3.28271 106.221 3.45473C105.848 3.62675 105.514 3.87363 105.24 4.18007C105.24 4.04007 105.24 3.92017 105.29 3.78017V3.37014H103.28V3.70009C103.15 4.79009 103 5.77013 102.83 6.61013L101.68 12.3902H103.92L104.7 8.45009C105.05 6.64009 106.09 5.32009 107.17 5.32009C107.28 5.30726 107.39 5.30726 107.5 5.32009L107.85 5.39016L108.29 3.26015L107.92 3.19008C107.751 3.17463 107.58 3.17128 107.41 3.18007Z" fill="#FDFEFF"/>
<path fill-rule="evenodd" clip-rule="evenodd" d="M127.43 6.61011C127.43 8.70011 125.88 10.6801 124.25 10.6801C123.815 10.697 123.383 10.6079 122.99 10.4202L123.38 8.36011C123.78 6.29011 125.09 5.06006 126.12 5.06006C127.33 5.06006 127.43 6.25011 127.43 6.61011ZM126.66 3.14014C125.694 3.15871 124.764 3.51217 124.03 4.14014L124.17 3.29016H122.08V3.6001C121.95 4.4301 121.77 5.60016 121.59 6.54016L119.76 15.7101H121.99L122.66 12.2701C123.197 12.4393 123.757 12.5203 124.32 12.5101C127.32 12.5101 129.78 9.75013 129.78 6.51013C129.71 5.00013 128.91 3.18005 126.66 3.18005V3.14014Z" fill="#FDFEFF"/>
<path fill-rule="evenodd" clip-rule="evenodd" d="M138.7 6.99019C138.7 8.71019 137.5 10.7202 135.96 10.7202C134.96 10.7202 134.27 9.95017 134.27 8.72017C134.258 7.60851 134.673 6.53469 135.43 5.72017C135.635 5.49911 135.882 5.32151 136.157 5.19783C136.432 5.07415 136.729 5.00693 137.03 5.0002C138.62 5.0002 138.7 6.62014 138.7 6.94014V6.99019ZM137.19 3.18013C135.756 3.24254 134.404 3.86942 133.43 4.92403C132.456 5.97863 131.939 7.37545 131.99 8.81013C131.967 9.31127 132.049 9.81168 132.231 10.2794C132.412 10.7471 132.689 11.1718 133.044 11.5266C133.398 11.8813 133.823 12.1581 134.291 12.3396C134.759 12.521 135.259 12.6029 135.76 12.5802C137.185 12.5228 138.531 11.9059 139.504 10.8632C140.478 9.82052 141.001 8.43611 140.96 7.01021C140.991 6.50419 140.916 5.99719 140.738 5.52229C140.561 5.04739 140.285 4.61518 139.93 4.25386C139.574 3.89254 139.146 3.61024 138.674 3.42525C138.202 3.24025 137.696 3.15668 137.19 3.18013Z" fill="#FDFEFF"/>
<path fill-rule="evenodd" clip-rule="evenodd" d="M115.43 7.91016C115.11 9.55016 113.9 10.6501 112.96 10.6501C112.24 10.6501 111.96 10.3301 111.96 9.58008C111.967 9.19171 112.021 8.80558 112.12 8.43005L113.12 3.37012H110.88L109.88 8.37012C109.774 8.8497 109.717 9.33888 109.71 9.83008C109.664 10.194 109.7 10.5636 109.815 10.9119C109.93 11.2601 110.122 11.5782 110.376 11.8428C110.63 12.1074 110.94 12.3119 111.283 12.4412C111.627 12.5705 111.995 12.6213 112.36 12.5901C113.315 12.5767 114.234 12.222 114.95 11.5901L114.82 12.4301H116.92V12.1101C117.02 11.3501 117.15 10.5401 117.31 9.72009L118.57 3.41016H116.33L115.43 7.91016Z" fill="#FDFEFF"/>
</g>
<defs>
<clipPath id="clip0_781_13306">
<rect width="295.14" height="48" fill="white"/>
</clipPath>
</defs>
</svg>
